:FULLY-SPECIFIED
:FORCE-ALL-JOINTS-BE-3DOF
:DEGREES
307
root 9.85991 16.6238 6.54955 5.73015 5.25133 3.65288
lfemur 15.2294 5.06637 -24.8853
ltibia 6.94599 0 0
lfoot -9.35165 -0.142213 0
ltoes -10.7622 0 0
rfemur -43.5864 -0.0428765 15.4692
rtibia 45.8519 0 0
rfoot -15.2423 -7.70785 0
rtoes -22.4573 0 0
lowerback -6.51033 -4.56747 -5.22274
upperback -0.532808 -5.78474 2.20158
thorax 3.7735 -2.97431 4.63818
lowerneck -20.5725 -4.02733 -12.1051
upperneck 22.164 -4.93511 12.0769
head 11.218 -1.823 5.73486
lclavicle 3.89627e-14 -1.14958e-15 0
lhumerus -15.5096 -28.646 93.4202
lradius 32.753 0 0
lwrist 5.80408 0 0
lhand -12.1191 -25.0187 0
lfingers 7.12502 0 0
lthumb 13.9387 4.43748 0
rclavicle 3.89627e-14 -1.14958e-15 0
rhumerus -49.3468 6.1504 -82.4589
rradius 35.204 0 0
rwrist -19.1071 0 0
rhand -28.9226 -22.9405 0
rfingers 7.12502 0 0
rthumb -2.27697 -52.9072 0
308
root 9.84942 16.611 6.71398 5.7912 5.51213 3.64283
lfemur 16.3404 5.09805 -24.5378
ltibia 6.15158 0 0
lfoot -8.61871 -0.45812 0
ltoes -11.1178 0 0
rfemur -43.7692 -0.00332553 15.4575
rtibia 45.6292 0 0
rfoot -14.6427 -7.26622 0
rtoes -22.2921 0 0
lowerback -6.6023 -4.60876 -5.2486
upperback -0.580671 -5.83427 2.20565
thorax 3.78396 -2.99854 4.64651
lowerneck -20.4683 -4.06196 -12.1652
upperneck 22.0821 -4.9913 12.157
head 11.1807 -1.84725 5.76346
lclavicle 3.90873e-14 -1.98686e-15 0
lhumerus -15.9486 -29.2299 93.9142
lradius 33.1571 0 0
lwrist 5.9036 0 0
lhand -11.7891 -25.036 0
lfingers 7.12502 0 0
lthumb 14.2567 4.39717 0
rclavicle 3.90873e-14 -1.98686e-15 0
rhumerus -49.4914 6.06547 -82.4608
rradius 34.8185 0 0
rwrist -18.8317 0 0
rhand -28.8671 -23.0541 0
rfingers 7.12502 0 0
rthumb -2.22333 -53.0214 0
309
root 9.83893 16.5982 6.87842 5.85358 5.77001 3.62964
lfemur 17.4242 5.13118 -24.1878
ltibia 5.37912 0 0
lfoot -7.88591 -0.769965 0
ltoes -11.4685 0 0
rfemur -43.9299 0.038202 15.4504
rtibia 45.398 0 0
rfoot -14.0366 -6.81807 0
rtoes -22.1236 0 0
lowerback -6.6941 -4.64712 -5.27193
upperback -0.629384 -5.88007 2.20972
thorax 3.79307 -3.02086 4.65374
lowerneck -20.3632 -4.0977 -12.2259
upperneck 21.9987 -5.04905 12.2382
head 11.1429 -1.87217 5.79223
lclavicle 3.91843e-14 -2.83645e-15 0
lhumerus -16.4041 -29.8054 94.4084
lradius 33.5571 0 0
lwrist 6.0012 0 0
lhand -11.4579 -25.0518 0
lfingers 7.12502 0 0
lthumb 14.5757 4.3582 0
rclavicle 3.91843e-14 -2.83645e-15 0
rhumerus -49.6318 5.98389 -82.4644
rradius 34.4362 0 0
rwrist -18.5576 0 0
rhand -28.812 -23.168 0
rfingers 7.12502 0 0
rthumb -2.17015 -53.136 0
310
root 9.82844 16.5854 7.04285 5.91693 6.02428 3.61333
lfemur 18.4768 5.16549 -23.8366
ltibia 4.63214 0 0
lfoot -7.15632 -1.07634 0
ltoes -11.8129 0 0
rfemur -44.0686 0.0816948 15.448
rtibia 45.1594 0 0
rfoot -13.4271 -6.36521 0
rtoes -21.9524 0 0
lowerback -6.78537 -4.68249 -5.29262
upperback -0.678686 -5.92206 2.2138
thorax 3.80087 -3.04123 4.65985
lowerneck -20.2579 -4.13443 -12.2871
upperneck 21.9141 -5.10814 12.3199
head 11.1049 -1.89768 5.82103
lclavicle 3.92535e-14 -3.69619e-15 0
lhumerus -16.8746 -30.3706 94.9011
lradius 33.9517 0 0
lwrist 6.09712 0 0
lhand -11.1271 -25.0662 0
lfingers 7.12502 0 0
lthumb 14.8944 4.32077 0
rclavicle 3.92535e-14 -3.69619e-15 0
rhumerus -49.7669 5.90629 -82.4696
rradius 34.0587 0 0
rwrist -18.2859 0 0
rhand -28.7577 -23.2819 0
rfingers 7.12502 0 0
rthumb -2.11771 -53.2505 0
311
root 9.81795 16.5725 7.20729 5.98089 6.27428 3.59392
lfemur 19.4944 5.20074 -23.4853
ltibia 3.9142 0 0
lfoot -6.43301 -1.37583 0
ltoes -12.1498 0 0
rfemur -44.1856 0.127141 15.4507
rtibia 44.9142 0 0
rfoot -12.8176 -5.90948 0
rtoes -21.7794 0 0
lowerback -6.87571 -4.71477 -5.31055
upperback -0.728317 -5.96016 2.21789
thorax 3.80739 -3.05961 4.66483
lowerneck -20.1526 -4.172 -12.3484
upperneck 21.829 -5.16838 12.4018
head 11.067 -1.92369 5.8497
lclavicle 3.92951e-14 -4.56393e-15 0
lhumerus -17.358 -30.9238 95.3909
lradius 34.3396 0 0
lwrist 6.19161 0 0
lhand -10.7981 -25.0789 0
lfingers 7.12502 0 0
lthumb 15.2114 4.28505 0
rclavicle 3.92951e-14 -4.56393e-15 0
rhumerus -49.8959 5.83328 -82.4764
rradius 33.6875 0 0
rwrist -18.0176 0 0
rhand -28.7044 -23.3954 0
rfingers 7.12502 0 0
rthumb -2.06626 -53.3645 0
312
root 9.80746 16.5597 7.37172 6.04512 6.51934 3.57142
lfemur 20.473 5.23668 -23.135
ltibia 3.22884 0 0
lfoot -5.71903 -1.66704 0
ltoes -12.4777 0 0
rfemur -44.281 0.17453 15.4589
rtibia 44.6632 0 0
rfoot -12.2114 -5.45271 0
rtoes -21.6051 0 0
lowerback -6.96475 -4.7439 -5.32563
upperback -0.778018 -5.99427 2.22202
thorax 3.81264 -3.07596 4.66867
lowerneck -20.0479 -4.21031 -12.4095
upperneck 21.7437 -5.22956 12.4835
head 11.0292 -1.95012 5.87812
lclavicle 3.93091e-14 -5.43749e-15 0
lhumerus -17.8528 -31.463 95.8761
lradius 34.7195 0 0
lwrist 6.2849 0 0
lhand -10.4724 -25.09 0
lfingers 7.12502 0 0
lthumb 15.5251 4.25124 0
rclavicle 3.93091e-14 -5.43749e-15 0
rhumerus -50.0178 5.76548 -82.4845
rradius 33.3243 0 0
rwrist -17.7539 0 0
rhand -28.6525 -23.5081 0
rfingers 7.12502 0 0
rthumb -2.01606 -53.4777 0
313
root 9.79697 16.5469 7.53615 6.10924 6.7588 3.54586
lfemur 21.4088 5.27304 -22.787
ltibia 2.5796 0 0
lfoot -5.01746 -1.94854 0
ltoes -12.7953 0 0
rfemur -44.355 0.223851 15.4728
rtibia 44.4074 0 0
rfoot -11.6117 -4.99672 0
rtoes -21.4305 0 0
lowerback -7.0521 -4.76978 -5.33773
upperback -0.827529 -6.02432 2.22619
thorax 3.81666 -3.09025 4.67135
lowerneck -19.9443 -4.24923 -12.4702
upperneck 21.6586 -5.29148 12.5646
head 10.9918 -1.97689 5.90614
lclavicle 3.92954e-14 -6.31471e-15 0
lhumerus -18.3571 -31.9867 96.355
lradius 35.0903 0 0
lwrist 6.37724 0 0
lhand -10.1516 -25.0994 0
lfingers 7.12502 0 0
lthumb 15.8342 4.21952 0
rclavicle 3.92954e-14 -6.31471e-15 0
rhumerus -50.1317 5.7035 -82.494
rradius 32.9707 0 0
rwrist -17.4958 0 0
rhand -28.602 -23.6195 0
rfingers 7.12502 0 0
rthumb -1.96737 -53.5898 0
